<svg xmlns="http://www.w3.org/2000/svg" viewBox="0 0 128 128" width="128" height="128">
<circle cx="64" cy="64" r="64" fill="#E8732A"/>
<circle cx="64" cy="64" r="55" fill="#D4A017" fill-opacity="0.25"/>
<ellipse cx="64" cy="39" rx="9" ry="19" fill="white" fill-opacity="0.9"/>
<ellipse cx="64" cy="39" rx="9" ry="19" fill="white" fill-opacity="0.6" transform="rotate(45 64 64)"/>
<ellipse cx="64" cy="39" rx="9" ry="19" fill="white" fill-opacity="0.6" transform="rotate(90 64 64)"/>
<ellipse cx="64" cy="39" rx="9" ry="19" fill="white" fill-opacity="0.6" transform="rotate(135 64 64)"/>
<ellipse cx="64" cy="39" rx="9" ry="19" fill="white" fill-opacity="0.9" transform="rotate(180 64 64)"/>
<ellipse cx="64" cy="39" rx="9" ry="19" fill="white" fill-opacity="0.6" transform="rotate(225 64 64)"/>
<ellipse cx="64" cy="39" rx="9" ry="19" fill="white" fill-opacity="0.6" transform="rotate(270 64 64)"/>
<ellipse cx="64" cy="39" rx="9" ry="19" fill="white" fill-opacity="0.6" transform="rotate(315 64 64)"/>
<circle cx="64" cy="64" r="13" fill="#FDF6E3"/>
<text x="64" y="71" font-family="serif" font-size="17" text-anchor="middle" fill="#E8732A">ॐ</text>
</svg>