<svg xmlns="http://www.w3.org/2000/svg" viewBox="0 0 96 96" width="96" height="96">
<circle cx="48" cy="48" r="48" fill="#E8732A"/>
<circle cx="48" cy="48" r="41" fill="#D4A017" fill-opacity="0.25"/>
<ellipse cx="48" cy="29" rx="7" ry="14" fill="white" fill-opacity="0.9"/>
<ellipse cx="48" cy="29" rx="7" ry="14" fill="white" fill-opacity="0.6" transform="rotate(45 48 48)"/>
<ellipse cx="48" cy="29" rx="7" ry="14" fill="white" fill-opacity="0.6" transform="rotate(90 48 48)"/>
<ellipse cx="48" cy="29" rx="7" ry="14" fill="white" fill-opacity="0.6" transform="rotate(135 48 48)"/>
<ellipse cx="48" cy="29" rx="7" ry="14" fill="white" fill-opacity="0.9" transform="rotate(180 48 48)"/>
<ellipse cx="48" cy="29" rx="7" ry="14" fill="white" fill-opacity="0.6" transform="rotate(225 48 48)"/>
<ellipse cx="48" cy="29" rx="7" ry="14" fill="white" fill-opacity="0.6" transform="rotate(270 48 48)"/>
<ellipse cx="48" cy="29" rx="7" ry="14" fill="white" fill-opacity="0.6" transform="rotate(315 48 48)"/>
<circle cx="48" cy="48" r="10" fill="#FDF6E3"/>
<text x="48" y="53" font-family="serif" font-size="13" text-anchor="middle" fill="#E8732A">ॐ</text>
</svg>