<svg xmlns="http://www.w3.org/2000/svg" viewBox="0 0 512 512" width="512" height="512">
<circle cx="256" cy="256" r="256" fill="#E8732A"/>
<circle cx="256" cy="256" r="220" fill="#D4A017" fill-opacity="0.25"/>
<ellipse cx="256" cy="158" rx="39" ry="79" fill="white" fill-opacity="0.9"/>
<ellipse cx="256" cy="158" rx="39" ry="79" fill="white" fill-opacity="0.6" transform="rotate(45 256 256)"/>
<ellipse cx="256" cy="158" rx="39" ry="79" fill="white" fill-opacity="0.6" transform="rotate(90 256 256)"/>
<ellipse cx="256" cy="158" rx="39" ry="79" fill="white" fill-opacity="0.6" transform="rotate(135 256 256)"/>
<ellipse cx="256" cy="158" rx="39" ry="79" fill="white" fill-opacity="0.9" transform="rotate(180 256 256)"/>
<ellipse cx="256" cy="158" rx="39" ry="79" fill="white" fill-opacity="0.6" transform="rotate(225 256 256)"/>
<ellipse cx="256" cy="158" rx="39" ry="79" fill="white" fill-opacity="0.6" transform="rotate(270 256 256)"/>
<ellipse cx="256" cy="158" rx="39" ry="79" fill="white" fill-opacity="0.6" transform="rotate(315 256 256)"/>
<circle cx="256" cy="256" r="54" fill="#FDF6E3"/>
<text x="256" y="286" font-family="serif" font-size="71" text-anchor="middle" fill="#E8732A">ॐ</text>
</svg>