<svg xmlns="http://www.w3.org/2000/svg" viewBox="0 0 72 72" width="72" height="72">
<circle cx="36" cy="36" r="36" fill="#E8732A"/>
<circle cx="36" cy="36" r="30" fill="#D4A017" fill-opacity="0.25"/>
<ellipse cx="36" cy="22" rx="5" ry="11" fill="white" fill-opacity="0.9"/>
<ellipse cx="36" cy="22" rx="5" ry="11" fill="white" fill-opacity="0.6" transform="rotate(45 36 36)"/>
<ellipse cx="36" cy="22" rx="5" ry="11" fill="white" fill-opacity="0.6" transform="rotate(90 36 36)"/>
<ellipse cx="36" cy="22" rx="5" ry="11" fill="white" fill-opacity="0.6" transform="rotate(135 36 36)"/>
<ellipse cx="36" cy="22" rx="5" ry="11" fill="white" fill-opacity="0.9" transform="rotate(180 36 36)"/>
<ellipse cx="36" cy="22" rx="5" ry="11" fill="white" fill-opacity="0.6" transform="rotate(225 36 36)"/>
<ellipse cx="36" cy="22" rx="5" ry="11" fill="white" fill-opacity="0.6" transform="rotate(270 36 36)"/>
<ellipse cx="36" cy="22" rx="5" ry="11" fill="white" fill-opacity="0.6" transform="rotate(315 36 36)"/>
<circle cx="36" cy="36" r="7" fill="#FDF6E3"/>
<text x="36" y="40" font-family="serif" font-size="10" text-anchor="middle" fill="#E8732A">ॐ</text>
</svg>